<svg width="202" height="202" viewBox="0 0 202 202" fill="none" xmlns="http://www.w3.org/2000/svg">
<rect width="200" height="200" transform="translate(1 1)" fill="white"/>
<path d="M91.6331 4.76947C96.6608 -0.256491 104.812 -0.256491 109.833 4.76947L197.104 92.0381C202.13 97.0651 202.13 105.218 197.104 110.247L110.241 197.096C105.21 202.122 97.0615 202.122 92.0373 197.096L4.77066 109.835C-0.256886 104.808 -0.256886 96.6574 4.77066 91.6275L32.7279 63.6717C42.3543 88.8183 54.5764 98.3774 67.6667 100.123C92.4409 103.426 121.24 81.7374 132.579 109.772C133.025 110.874 133.65 113.281 133.65 113.281C127.316 115.912 125.561 122.053 124.684 126.439C123.807 130.825 123.807 134.333 117.667 143.105C133.807 137.081 135.529 134.395 139.596 120.298C147.491 134.333 154.509 131.702 165.912 130.825C157.14 126.439 155.637 122.053 153.632 118.544C151.627 115.035 147.491 110.649 141.351 110.649C141.351 110.649 140.825 107.082 140.474 106.263C128.083 77.3518 115.912 82.5789 85.2106 80.8246C66.346 79.7466 78.193 51.5413 58.8947 37.5062L91.6331 4.76947Z" fill="#F05133" stroke="white"/>
</svg>
