<svg
  version="1.0"
  xmlns="http://www.w3.org/2000/svg"
  viewBox="0 -300 300.000000 300.000000"
  preserveAspectRatio="xMidYMid meet"
  shape-rendering="geometricPrecision"
  width="100%"
  height="100%">
  <g transform="scale(0.100000,-0.100000)">
    <path d="M1577 2984 c-3 -4 9 -25 28 -47 51 -60 100 -167 129 -283 62 -244 19
      -671 -101 -1024 -54 -159 -164 -378 -250 -499 -79 -110 -242 -283 -354 -377
      -44 -36 -79 -70 -79 -75 0 -26 202 -175 304 -225 90 -44 246 -97 382 -130 96
      -24 130 -27 279 -27 139 0 187 4 262 21 205 48 286 94 472 267 129 120 248
      363 308 630 26 114 26 453 0 575 -90 428 -351 791 -722 1003 -158 91 -386 167
      -545 181 -41 4 -82 9 -91 12 -8 2 -18 1 -22 -2z" />
    <path d="M1020 2907 c-172 -60 -362 -170 -480 -275 l-52 -47 203 0 c203 0 220
      -2 354 -42 141 -42 283 -139 360 -247 52 -73 123 -221 150 -314 17 -59 19 -62
      30 -40 24 46 46 211 46 338 0 97 -5 145 -21 206 -52 191 -162 326 -337 410
      -104 50 -137 52 -253 11z" />
    <path d="M715 2431 c-325 -39 -580 -339 -670 -786 -24 -118 -22 -306 5 -433
      33 -157 95 -324 158 -426 l25 -40 18 74 c24 92 56 135 126 167 43 20 63 24 97
      19 77 -12 157 -59 276 -164 63 -56 122 -102 131 -102 20 0 240 218 321 319
      171 211 270 418 299 621 10 73 10 98 -5 176 -35 192 -114 328 -250 431 -144
      109 -351 165 -531 144z" />
    <path d="M383 896 c-25 -21 -28 -31 -27 -78 4 -169 167 -260 350 -198 111 39
      111 36 -2 145 -152 145 -255 187 -321 131z" />
    <path d="M826 591 c-24 -27 -111 -71 -170 -87 -59 -16 -143 -18 -201 -4 -22 5
      -41 8 -42 6 -7 -6 127 -131 192 -181 245 -184 509 -282 810 -300 108 -7 314 7
      385 25 109 28 196 53 203 60 4 4 -45 10 -110 13 -227 12 -440 86 -689 240
      -107 66 -197 131 -275 199 -62 53 -78 57 -103 29z" />
  </g>
</svg>
